<?xml version="1.0" standalone="no"?>
<!DOCTYPE svg PUBLIC "-//W3C//DTD SVG 20010904//EN"
 "http://www.w3.org/TR/2001/REC-SVG-20010904/DTD/svg10.dtd">
<svg version="1.0" xmlns="http://www.w3.org/2000/svg"
 width="620.000000pt" height="620.000000pt" viewBox="0 0 620.000000 620.000000"
 preserveAspectRatio="xMidYMid meet">

<g transform="translate(0.000000,620.000000) scale(0.100000,-0.100000)"
fill="#000000" stroke="none">
<path d="M953 5317 c-17 -7 -35 -15 -39 -19 -13 -14 -64 -8 -70 7 -10 25 -32
-12 -26 -43 4 -22 2 -24 -17 -19 -18 4 -21 1 -21 -21 0 -15 9 -40 20 -57 25
-38 28 -136 5 -155 -23 -19 -20 -93 5 -115 11 -10 34 -49 51 -86 18 -38 38
-74 45 -80 9 -8 14 -33 13 -73 l0 -61 -94 -67 c-52 -37 -106 -70 -120 -74 -14
-3 -45 -25 -68 -48 -49 -48 -72 -109 -88 -237 -5 -45 -12 -86 -14 -90 -3 -3
-19 -98 -36 -210 -17 -112 -33 -207 -36 -212 -9 -15 -33 -108 -49 -192 -21
-107 -29 -367 -15 -485 8 -77 18 -109 48 -169 21 -41 45 -76 55 -79 10 -2 18
-8 18 -13 0 -5 5 -9 10 -9 15 0 12 46 -5 87 -20 47 -32 149 -17 139 6 -3 13
-19 17 -35 6 -27 31 -59 39 -50 9 11 -14 133 -33 172 -27 56 -27 121 0 217 40
142 59 225 59 262 0 58 26 173 71 318 23 74 47 164 54 200 l12 65 15 -36 c19
-43 38 -282 38 -462 0 -81 -8 -170 -24 -267 -51 -308 -53 -359 -26 -845 14
-242 13 -215 11 -415 -1 -94 5 -204 14 -280 29 -226 35 -294 29 -365 -7 -92
-20 -132 -56 -178 -49 -62 -39 -72 77 -75 131 -4 149 1 141 36 -41 199 -42
231 -9 582 13 146 14 197 4 310 -14 160 -7 352 19 541 11 75 23 205 26 288 l7
151 27 0 27 0 11 -147 c6 -82 21 -209 32 -283 22 -142 25 -253 21 -650 -2
-140 2 -261 10 -320 7 -52 13 -180 14 -285 2 -104 3 -196 4 -203 2 -18 282
-13 289 6 2 6 -27 40 -64 75 -37 34 -73 77 -81 96 -20 47 -18 204 6 391 17
129 20 214 20 507 -1 194 2 357 6 362 3 6 10 65 14 132 11 157 -2 434 -28 579
-31 174 -25 596 10 715 l12 40 27 -105 c15 -58 36 -132 47 -165 38 -111 52
-169 62 -265 6 -52 29 -166 51 -253 46 -180 48 -216 19 -264 -13 -20 -23 -58
-26 -96 -3 -34 -10 -68 -16 -74 -5 -7 -6 -13 -1 -13 18 0 31 16 46 55 14 34
17 37 24 21 4 -11 -2 -47 -15 -90 -27 -84 -36 -126 -27 -126 12 0 50 25 63 40
80 100 111 344 78 615 -18 143 -20 155 -51 264 -14 47 -33 146 -44 220 -36
248 -78 467 -94 499 -23 44 -63 81 -116 105 -24 11 -74 42 -109 70 -36 27 -76
54 -88 60 -20 9 -23 18 -23 61 0 42 6 60 35 101 20 27 41 66 47 88 6 21 20 42
29 48 10 5 24 27 30 49 11 37 10 43 -9 70 -18 23 -22 43 -22 98 0 38 -5 84
-11 103 -34 100 -167 156 -276 116z"/>
<path d="M2915 5240 c-47 -22 -77 -24 -92 -9 -19 19 -36 -1 -30 -37 5 -32 4
-34 -19 -28 -20 5 -24 2 -24 -15 0 -12 9 -39 20 -61 24 -48 27 -145 5 -174
-22 -29 -19 -79 8 -107 12 -14 37 -54 55 -91 25 -52 32 -78 32 -126 0 -58 -1
-60 -32 -73 -18 -7 -61 -32 -95 -56 -35 -23 -83 -47 -109 -53 -57 -13 -112
-41 -141 -72 -34 -36 -63 -108 -63 -157 0 -24 -13 -85 -29 -136 -19 -57 -36
-143 -46 -230 -12 -105 -26 -168 -55 -255 -42 -124 -70 -294 -70 -420 0 -38 7
-119 15 -180 14 -94 21 -119 49 -163 34 -53 53 -72 94 -95 21 -11 22 -10 22
17 0 16 -11 53 -25 83 -24 52 -32 98 -18 112 4 3 16 -13 27 -36 23 -46 65 -70
47 -26 -6 13 -13 44 -16 70 -4 30 -17 60 -37 85 -27 34 -29 43 -24 88 3 28 23
91 44 140 57 132 80 210 90 305 7 65 18 103 46 162 21 42 46 116 56 165 10 48
19 83 19 77 1 -7 18 -33 40 -59 47 -57 55 -107 56 -345 0 -152 -3 -181 -39
-360 -35 -177 -39 -211 -40 -365 -1 -115 3 -183 12 -210 12 -38 28 -273 25
-380 -8 -300 -6 -342 18 -485 29 -177 32 -353 6 -394 -9 -14 -49 -50 -87 -81
-103 -82 -96 -91 55 -86 66 3 142 5 170 5 60 1 63 7 45 121 -11 69 -10 102 5
225 40 343 45 389 45 455 0 39 -6 102 -12 140 -19 114 -11 343 17 450 25 98
45 265 45 382 l0 74 28 -3 c26 -3 27 -5 29 -68 5 -144 25 -309 45 -380 29
-101 36 -314 14 -430 -22 -113 -20 -286 5 -497 20 -173 20 -216 3 -404 l-6
-66 88 -7 c125 -11 167 -12 182 -8 21 7 13 37 -17 66 -16 16 -39 52 -51 81
-19 47 -21 68 -17 177 2 74 15 185 32 278 27 150 35 272 26 415 -5 89 15 384
30 430 22 66 16 327 -10 470 -12 66 -28 157 -36 203 -8 45 -17 87 -21 93 -11
19 -4 311 10 392 11 60 20 84 45 112 17 20 31 40 31 45 0 6 5 10 10 10 6 0 10
-10 10 -22 0 -44 34 -155 67 -222 27 -54 37 -87 43 -155 8 -87 43 -203 94
-315 15 -33 32 -84 38 -113 11 -53 10 -56 -21 -100 -22 -31 -34 -61 -38 -97
-3 -28 -10 -59 -15 -69 -8 -15 -6 -18 8 -15 10 1 27 23 39 46 16 32 24 40 28
28 9 -23 -2 -71 -30 -135 -24 -54 -24 -96 -1 -73 7 7 18 12 26 12 17 0 44 31
82 96 26 45 32 70 46 194 15 132 15 153 0 294 -12 101 -26 174 -42 221 -49
136 -55 161 -70 294 -8 78 -25 168 -40 215 -14 44 -29 113 -34 153 -18 140
-69 198 -206 233 -23 5 -72 30 -110 55 -38 25 -83 51 -101 57 -31 11 -33 15
-33 63 0 37 6 60 24 86 13 19 31 52 39 72 9 20 27 49 41 64 31 33 34 77 9 113
-13 19 -17 41 -14 92 5 117 -36 199 -116 234 -46 20 -159 17 -208 -6z"/>
<path d="M4908 5237 c-49 -18 -61 -20 -78 -9 -29 18 -43 5 -37 -34 6 -38 7
-37 -27 -24 -22 8 -26 7 -26 -9 0 -9 11 -40 25 -67 29 -57 36 -161 11 -170
-34 -13 -23 -104 15 -125 10 -5 19 -15 19 -20 0 -6 14 -41 31 -77 18 -36 32
-77 32 -91 0 -54 -3 -71 -15 -71 -6 0 -76 -32 -155 -70 -98 -48 -156 -83 -182
-110 -69 -72 -132 -270 -146 -460 -8 -122 -24 -229 -50 -355 -35 -163 -58
-394 -50 -495 8 -90 35 -213 57 -253 20 -38 77 -98 96 -102 9 -2 27 -7 40 -11
32 -9 29 21 -9 107 -35 80 -38 143 -4 74 14 -27 28 -41 44 -43 20 -3 23 -1 16
15 -4 10 -13 41 -19 69 -7 28 -20 62 -29 75 -25 36 -21 99 18 254 22 86 39
186 45 258 6 66 12 122 15 127 11 17 76 253 82 296 11 84 27 19 31 -131 4
-127 -2 -229 -28 -530 -5 -55 -12 -165 -16 -245 -6 -146 -6 -151 43 -610 10
-85 16 -173 15 -195 -11 -236 -7 -278 68 -679 33 -177 31 -184 -45 -265 -36
-37 -65 -73 -65 -79 0 -17 40 -22 187 -22 l143 0 6 26 c4 15 -1 57 -11 98 -26
101 -25 295 3 530 19 159 22 217 16 355 -6 142 -4 177 11 241 14 58 20 134 24
333 8 328 23 343 33 30 4 -134 14 -265 24 -317 11 -64 17 -167 19 -355 2 -164
9 -316 19 -396 21 -170 23 -301 7 -401 -8 -44 -11 -92 -8 -106 l7 -26 164 -7
c90 -4 173 -4 185 0 35 11 23 38 -34 79 -86 62 -107 89 -112 143 -5 47 18 226
57 453 15 87 20 162 20 305 0 105 7 271 15 370 38 474 38 483 26 649 -7 89
-16 188 -21 221 -20 125 -30 446 -17 525 l13 75 7 -55 c4 -30 27 -124 52 -209
28 -95 45 -174 45 -206 0 -69 27 -224 52 -294 11 -31 22 -90 25 -131 4 -66 2
-81 -21 -130 -14 -30 -26 -67 -26 -82 0 -15 -4 -30 -10 -33 -16 -10 -11 -25 8
-25 22 0 47 25 61 60 l10 25 0 -27 c1 -14 -8 -48 -20 -75 -42 -96 -43 -135 -3
-118 11 4 24 9 30 9 6 1 27 17 46 38 84 86 120 270 99 511 -7 78 -19 174 -27
212 -37 183 -53 277 -59 355 -21 286 -73 464 -160 554 -23 24 -86 62 -178 107
-78 38 -147 69 -154 69 -24 0 -16 95 11 135 14 20 30 52 36 71 6 18 25 48 42
64 26 27 30 36 24 68 -3 20 -12 42 -21 48 -11 9 -15 32 -15 96 0 124 -34 188
-115 222 -54 23 -167 19 -237 -7z"/>
<path d="M4470 910 l0 -90 65 0 c51 0 65 3 65 15 0 11 -12 15 -50 15 -47 0
-50 2 -50 25 0 23 4 25 45 25 33 0 45 4 45 15 0 11 -12 15 -45 15 -38 0 -45 3
-45 20 0 17 7 20 50 20 38 0 50 4 50 15 0 12 -14 15 -65 15 l-65 0 0 -90z"/>
<path d="M4871 983 c3 -39 0 -46 -16 -33 -18 15 -52 4 -65 -21 -6 -11 -8 -35
-4 -54 8 -43 36 -62 70 -46 15 6 24 7 24 1 0 -6 5 -10 10 -10 6 0 10 37 10 90
0 75 -3 90 -16 90 -9 0 -14 -8 -13 -17z m-3 -95 c3 -35 1 -38 -22 -38 -28 0
-41 27 -31 61 5 14 14 19 28 17 17 -2 23 -11 25 -40z"/>
<path d="M5577 973 c-18 -37 -11 -153 9 -153 10 0 14 14 14 55 0 42 3 55 15
55 8 0 15 5 15 10 0 6 -7 10 -15 10 -8 0 -15 7 -15 15 0 8 7 15 15 15 8 0 15
5 15 10 0 22 -40 9 -53 -17z"/>
<path d="M520 890 l0 -90 65 0 c51 0 65 3 65 15 0 11 -12 15 -50 15 -47 0 -50
2 -50 25 0 23 4 25 45 25 33 0 45 4 45 15 0 11 -12 15 -45 15 -38 0 -45 3 -45
20 0 17 7 20 50 20 38 0 50 4 50 15 0 12 -14 15 -65 15 l-65 0 0 -90z"/>
<path d="M1553 973 c-7 -2 -13 -13 -13 -23 0 -10 -6 -21 -12 -24 -10 -5 -10
-7 0 -12 7 -3 12 -26 12 -60 0 -41 4 -54 15 -54 12 0 15 13 15 55 0 46 3 55
18 55 16 1 16 1 0 14 -22 16 -23 36 -3 36 8 0 15 5 15 10 0 10 -26 12 -47 3z"/>
<path d="M2340 890 c0 -73 3 -90 15 -90 12 0 15 14 15 67 0 77 11 73 29 -9 16
-76 35 -75 51 2 7 33 17 63 21 66 5 3 9 -24 9 -60 0 -52 3 -66 15 -66 12 0 15
17 15 90 0 88 -1 90 -24 90 -20 0 -26 -8 -41 -62 -19 -68 -26 -65 -46 14 -9
41 -15 48 -35 48 -24 0 -24 -2 -24 -90z"/>
<path d="M3473 973 c-7 -2 -13 -13 -13 -23 0 -10 -6 -21 -12 -24 -10 -5 -10
-7 0 -12 7 -3 12 -26 12 -60 0 -41 4 -54 15 -54 11 0 15 13 15 54 0 34 5 57
13 60 10 5 10 7 0 12 -18 8 -16 34 2 34 8 0 15 5 15 10 0 10 -26 12 -47 3z"/>
<path d="M827 950 c-19 -22 -22 -40 -8 -40 6 0 11 -24 13 -52 3 -46 6 -53 26
-56 15 -2 22 2 22 12 0 9 -4 16 -10 16 -5 0 -10 18 -10 40 0 22 5 40 10 40 6
0 10 7 10 15 0 8 -4 15 -10 15 -5 0 -10 7 -10 15 0 21 -12 19 -33 -5z"/>
<path d="M4640 890 c0 -54 3 -70 14 -70 11 0 16 15 18 53 3 44 6 52 23 52 17
0 20 -8 23 -52 2 -38 7 -53 18 -53 11 0 14 14 14 60 0 55 -2 62 -25 72 -19 8
-28 8 -40 -2 -10 -8 -15 -9 -15 -1 0 6 -7 11 -15 11 -12 0 -15 -14 -15 -70z"/>
<path d="M4960 940 c-39 -39 -12 -120 40 -120 29 0 60 36 60 70 0 34 -31 70
-60 70 -11 0 -29 -9 -40 -20z m65 -50 c0 -31 -3 -35 -25 -35 -19 0 -26 6 -28
23 -5 36 5 54 30 50 19 -2 23 -9 23 -38z"/>
<path d="M5090 890 c0 -54 3 -70 14 -70 11 0 16 15 18 53 3 44 6 52 23 52 17
0 20 -8 23 -52 2 -37 7 -53 17 -53 10 0 15 16 17 53 3 44 6 52 23 52 17 0 20
-8 23 -52 2 -38 7 -53 18 -53 17 0 20 90 4 121 -12 21 -40 25 -58 7 -8 -8 -15
-8 -27 2 -12 10 -21 10 -40 2 -15 -7 -25 -8 -25 -2 0 6 -7 10 -15 10 -12 0
-15 -14 -15 -70z"/>
<path d="M5335 937 c-24 -20 -27 -28 -21 -59 9 -48 53 -69 91 -44 35 23 42 61
18 94 -26 36 -54 38 -88 9z m70 -27 c10 -33 -4 -60 -30 -60 -18 0 -26 7 -31
25 -11 46 47 79 61 35z"/>
<path d="M5470 888 c0 -54 3 -68 15 -68 11 0 15 12 15 51 0 42 3 52 20 56 34
9 23 31 -15 30 l-35 -1 0 -68z"/>
<path d="M5661 934 c-12 -15 -21 -34 -21 -44 0 -27 39 -70 64 -70 32 0 66 36
66 69 0 32 -37 71 -67 71 -12 0 -31 -12 -42 -26z m75 -19 c12 -30 -5 -65 -31
-65 -29 0 -45 41 -25 65 16 19 49 19 56 0z"/>
<path d="M700 920 c-39 -39 -12 -120 39 -120 10 0 29 9 42 20 l24 21 -42 -6
c-39 -6 -43 -5 -49 19 -11 44 1 59 41 52 38 -8 48 7 16 24 -29 15 -49 12 -71
-10z"/>
<path d="M929 922 c-31 -26 -31 -78 0 -104 31 -24 53 -23 79 5 27 29 28 71 2
97 -25 25 -51 25 -81 2z m66 -32 c9 -29 -3 -60 -24 -60 -27 0 -44 26 -37 55 8
32 51 35 61 5z"/>
<path d="M1060 869 c0 -54 3 -69 14 -69 11 0 16 15 18 53 3 44 6 52 23 52 17
0 20 -8 23 -52 2 -37 7 -53 17 -53 10 0 15 16 17 53 3 44 6 52 23 52 17 0 20
-8 23 -53 2 -36 7 -52 15 -49 13 4 18 54 10 99 -5 31 -37 46 -58 28 -10 -9
-19 -9 -27 -2 -7 5 -32 10 -55 9 l-43 0 0 -68z"/>
<path d="M1300 920 c-38 -38 -13 -120 38 -120 36 0 62 29 62 70 0 62 -58 92
-100 50z m65 -50 c0 -31 -3 -35 -25 -35 -19 0 -26 6 -28 23 -5 36 5 54 30 50
19 -2 23 -9 23 -38z"/>
<path d="M1440 868 c0 -54 3 -68 15 -68 12 0 15 13 15 55 0 48 2 55 20 55 11
0 20 6 20 14 0 10 -11 14 -35 13 l-35 -1 0 -68z"/>
<path d="M1631 914 c-12 -15 -21 -37 -21 -49 0 -25 39 -65 64 -65 24 0 66 45
66 70 0 26 -43 70 -69 70 -11 0 -29 -12 -40 -26z m74 -24 c10 -32 -4 -60 -30
-60 -15 0 -26 7 -30 20 -10 32 4 60 30 60 15 0 26 -7 30 -20z"/>
<path d="M2560 920 c-37 -37 -13 -120 36 -120 8 0 25 6 37 12 21 12 20 13 -17
18 -55 7 -60 30 -7 30 37 0 41 3 41 24 0 25 -32 56 -57 56 -7 0 -22 -9 -33
-20z m64 -25 c4 -11 -2 -15 -24 -15 -29 0 -38 9 -23 23 12 12 41 7 47 -8z"/>
<path d="M2698 929 c-32 -18 -22 -49 22 -67 55 -24 54 -47 -2 -38 -40 5 -41 5
-24 -9 35 -27 96 -12 96 24 0 22 -16 36 -52 45 -16 3 -28 13 -28 21 0 17 35
21 45 5 3 -5 13 -6 22 -3 14 6 14 8 -3 20 -21 15 -52 16 -76 2z"/>
<path d="M2841 914 c-28 -36 -26 -68 5 -93 34 -27 55 -26 82 2 29 30 28 62 -3
92 -31 32 -58 32 -84 -1z m74 -24 c9 -29 -3 -60 -24 -60 -27 0 -44 26 -37 55
8 32 51 35 61 5z"/>
<path d="M2980 868 c0 -54 3 -68 15 -68 12 0 15 13 15 56 0 52 1 55 23 52 20
-3 22 -8 19 -56 -3 -47 -1 -53 15 -50 13 2 18 13 19 43 3 64 3 65 24 65 18 0
20 -7 20 -55 0 -42 3 -55 15 -55 12 0 15 13 15 59 0 70 -16 92 -54 71 -15 -7
-29 -9 -38 -4 -7 5 -30 9 -50 10 l-38 0 0 -68z"/>
<path d="M3222 924 c-16 -11 -22 -25 -22 -54 0 -62 58 -92 100 -50 38 38 13
120 -38 120 -10 0 -28 -7 -40 -16z m63 -54 c0 -31 -3 -35 -25 -35 -19 0 -26 6
-28 23 -5 36 5 54 30 50 19 -2 23 -9 23 -38z"/>
<path d="M3354 925 c-2 -5 -3 -34 -1 -64 3 -68 27 -85 27 -19 0 48 7 61 33 71
9 3 17 11 17 16 0 13 -71 10 -76 -4z"/>
<path d="M3549 919 c-30 -30 -23 -88 14 -109 24 -13 30 -13 55 0 21 13 28 24
30 57 2 33 -1 44 -20 57 -30 22 -54 20 -79 -5z m66 -49 c0 -31 -3 -35 -25 -35
-19 0 -26 6 -28 23 -5 36 5 54 30 50 19 -2 23 -9 23 -38z"/>
</g>
</svg>
