<?xml version="1.0" standalone="no"?>
<!DOCTYPE svg PUBLIC "-//W3C//DTD SVG 20010904//EN"
 "http://www.w3.org/TR/2001/REC-SVG-20010904/DTD/svg10.dtd">
<svg version="1.0" xmlns="http://www.w3.org/2000/svg"
 width="1024.000000pt" height="1024.000000pt" viewBox="0 0 1024.000000 1024.000000"
 preserveAspectRatio="xMidYMid meet">

<g transform="translate(0.000000,1024.000000) scale(0.100000,-0.100000)"
fill="#000000" stroke="none">
<path d="M2838 9964 c-221 -40 -379 -168 -493 -399 -63 -129 -82 -207 -116
-500 -22 -190 -41 -305 -71 -425 -64 -263 -57 -366 34 -465 48 -52 135 -105
175 -105 10 0 -34 -18 -99 -40 -154 -52 -210 -81 -280 -148 -120 -114 -166
-228 -234 -577 -25 -126 -51 -261 -59 -300 -7 -38 -10 -74 -5 -79 18 -18 403
-106 464 -106 28 0 35 4 38 23 4 25 65 -405 75 -524 5 -67 1 -94 -35 -240 -88
-353 -130 -535 -129 -559 0 -14 -11 -80 -26 -146 -63 -288 -73 -695 -28 -1109
74 -675 91 -899 111 -1485 6 -173 15 -418 20 -545 6 -126 19 -446 30 -710 19
-473 20 -480 42 -502 33 -33 121 -46 263 -40 113 5 172 15 204 36 13 9 14 15
71 861 21 320 45 715 55 905 4 66 22 334 41 595 29 408 84 1243 84 1284 0 19
28 28 49 16 15 -8 19 -29 24 -137 3 -70 26 -405 51 -743 41 -558 54 -776 72
-1135 24 -498 100 -1625 111 -1636 47 -47 450 -55 478 -9 13 22 65 920 95
1645 23 574 27 644 46 830 36 360 85 919 96 1102 9 158 9 239 0 368 -13 182
-44 410 -67 494 -8 30 -12 58 -9 62 2 4 -20 106 -50 227 -65 260 -102 434
-111 517 -6 55 8 233 35 435 18 132 21 145 30 130 6 -10 24 -12 72 -7 64 6
413 89 425 101 9 9 -72 491 -104 621 -52 213 -158 362 -304 429 -41 19 -112
45 -159 59 -47 14 -101 30 -120 36 -32 10 -32 10 -5 7 62 -8 170 67 213 148
25 47 27 60 27 166 -1 98 -6 138 -37 265 -25 103 -43 215 -58 355 -28 273 -44
370 -76 465 -87 261 -242 427 -450 478 -89 22 -313 29 -406 11z m366 -513 c48
-65 181 -191 249 -236 42 -28 57 -44 57 -61 0 -23 1 -23 29 -6 23 13 34 14 54
5 42 -19 62 -68 62 -153 0 -119 -52 -202 -138 -219 -27 -6 -34 -15 -58 -72
-36 -89 -90 -172 -150 -229 l-49 -47 1 -94 c1 -184 8 -196 124 -244 33 -13 55
-25 49 -25 -6 0 -21 -23 -34 -50 -13 -28 -40 -66 -59 -86 -75 -76 -270 -143
-376 -129 -78 11 -190 50 -246 86 -50 31 -129 133 -129 165 0 7 -5 14 -11 16
-5 2 15 12 46 23 32 10 70 31 86 46 l29 27 0 136 0 136 -40 36 c-52 47 -106
130 -145 223 -29 68 -35 76 -68 85 -124 36 -190 232 -110 327 36 42 66 52 114
37 39 -11 44 -10 142 40 232 117 381 238 445 359 l33 63 30 -57 c16 -31 45
-77 63 -102z"/>
<path d="M5036 9259 c-33 -26 -36 -77 -5 -105 19 -17 41 -19 238 -21 l216 -3
3 -2045 2 -2045 -214 0 c-201 0 -215 -1 -240 -21 -19 -15 -26 -30 -26 -53 0
-62 11 -65 256 -68 l219 -3 3 -2028 2 -2027 -218 0 c-181 0 -221 -3 -240 -16
-29 -20 -30 -76 -2 -104 19 -19 33 -20 520 -20 l501 0 24 25 c30 29 32 68 5
95 -19 19 -33 20 -235 20 l-215 0 0 2030 0 2030 212 0 212 0 -32 -33 c-36 -37
-41 -75 -14 -100 34 -31 59 -20 162 74 134 121 134 122 3 247 -74 69 -104 92
-125 92 -61 0 -77 -63 -28 -112 17 -16 30 -30 30 -31 0 -1 -94 -1 -210 1
l-210 3 0 2047 0 2047 210 -3 210 -3 25 25 c32 32 32 70 0 101 l-24 25 -494 0
c-485 0 -495 0 -521 -21z"/>
<path d="M7615 8234 c-117 -20 -267 -70 -376 -123 -246 -122 -376 -260 -394
-419 -5 -49 73 -1077 91 -1193 13 -89 98 -182 189 -208 29 -9 236 -11 760 -9
689 3 722 4 759 22 53 27 105 80 128 133 23 51 25 76 79 723 22 272 38 516 35
542 -26 231 -375 466 -791 533 -113 19 -372 18 -480 -1z m482 -139 c232 -38
450 -140 565 -264 86 -92 100 -176 47 -277 -101 -191 -144 -244 -200 -244 -13
0 -59 16 -104 34 -94 41 -230 80 -332 96 -84 14 -68 -18 -134 255 -34 144 -45
176 -61 181 -12 3 -26 0 -33 -7 -7 -8 -34 -102 -60 -209 -26 -107 -50 -198
-54 -202 -3 -4 -48 -14 -100 -23 -104 -18 -252 -62 -334 -100 -66 -31 -98 -31
-135 0 -36 30 -158 249 -167 299 -10 53 18 135 65 189 103 117 343 230 575
271 108 19 347 20 462 1z"/>
<path d="M7660 5554 c-566 -121 -897 -708 -706 -1253 50 -143 130 -265 247
-377 82 -77 136 -114 251 -169 151 -73 226 -89 408 -89 139 1 164 4 245 28
335 100 572 334 671 661 25 83 28 104 28 260 0 157 -2 177 -28 259 -107 353
-382 609 -728 680 -95 20 -297 20 -388 0z m356 -258 c133 -35 247 -134 316
-273 39 -78 42 -93 46 -178 4 -75 0 -108 -16 -162 -25 -79 -76 -168 -133 -230
-23 -25 -50 -65 -61 -91 -19 -42 -20 -59 -15 -183 6 -121 5 -138 -11 -152 -20
-17 -196 -74 -330 -107 -70 -17 -95 -20 -106 -11 -9 8 -16 48 -21 124 -4 62
-12 118 -17 125 -6 7 -35 12 -72 12 -143 1 -205 71 -206 233 0 74 -1 77 -24
77 -28 0 -72 33 -81 60 -8 26 23 95 78 172 l45 63 6 115 c6 94 12 125 33 170
51 107 183 211 300 239 59 14 212 12 269 -3z"/>
<path d="M7745 2979 c-322 -47 -591 -298 -672 -626 -24 -99 -21 -284 6 -388
94 -360 416 -615 775 -615 220 1 388 68 548 219 169 160 257 361 258 588 1
504 -431 892 -915 822z m297 -252 c100 -36 173 -84 242 -159 139 -149 193
-343 152 -539 -66 -308 -381 -519 -688 -460 -205 40 -384 202 -454 411 -29 86
-26 272 5 368 63 192 239 353 434 398 90 20 225 12 309 -19z"/>
<path d="M7836 2524 c-13 -12 -16 -41 -16 -148 0 -107 -3 -136 -15 -146 -9 -7
-15 -29 -15 -53 0 -44 -9 -35 168 -182 57 -47 112 -85 122 -85 24 0 50 26 50
50 0 10 -19 40 -43 66 -24 27 -71 82 -104 122 l-61 74 -7 149 c-7 130 -10 151
-26 159 -25 14 -35 13 -53 -6z"/>
<path d="M2615 843 c-49 -19 -228 -22 -268 -5 -16 7 -35 9 -42 5 -7 -5 -66
-55 -130 -113 -64 -58 -158 -135 -208 -171 -107 -76 -137 -114 -137 -174 0
-78 71 -113 250 -122 131 -7 226 15 380 86 58 27 130 57 160 67 30 9 67 30 82
45 25 24 28 35 28 91 -1 83 -23 204 -48 262 -12 25 -22 45 -24 45 -2 -1 -21
-8 -43 -16z"/>
<path d="M3341 836 c-36 -92 -45 -147 -46 -254 0 -133 2 -136 113 -173 37 -12
112 -44 167 -70 138 -66 212 -82 350 -76 172 8 265 46 265 108 0 47 -37 107
-87 142 -101 70 -163 120 -281 227 -93 83 -128 110 -140 104 -48 -22 -247 -14
-314 11 -13 5 -20 0 -27 -19z"/>
</g>
</svg>
