<?xml version="1.0" standalone="no"?>
<!DOCTYPE svg PUBLIC "-//W3C//DTD SVG 20010904//EN"
 "http://www.w3.org/TR/2001/REC-SVG-20010904/DTD/svg10.dtd">
<svg version="1.0" xmlns="http://www.w3.org/2000/svg"
 width="1536.000000pt" height="1024.000000pt" viewBox="0 0 1536.000000 1024.000000"
 preserveAspectRatio="xMidYMid meet">

<g transform="translate(0.000000,1024.000000) scale(0.100000,-0.100000)"
fill="#000000" stroke="none">
<path d="M1644 6937 c-3 -8 -4 -41 -2 -73 l3 -59 40 -5 c38 -5 40 -7 40 -39 0
-33 -1 -34 -77 -57 -104 -30 -160 -65 -243 -148 -79 -79 -135 -175 -161 -277
-22 -83 -22 -244 -1 -326 51 -197 195 -357 378 -423 91 -33 248 -34 332 -1 97
38 149 72 222 146 119 121 175 262 175 445 0 133 -31 241 -98 342 l-25 39 34
37 c67 72 67 68 24 112 -22 22 -45 40 -52 40 -6 0 -26 -18 -44 -39 -17 -22
-37 -42 -45 -45 -7 -3 -36 10 -64 29 -53 36 -133 69 -194 80 -35 7 -37 9 -34
44 3 34 5 36 40 39 50 4 60 20 56 89 l-3 58 -148 3 c-118 2 -148 0 -153 -11z
m329 -380 c215 -106 319 -370 239 -609 -71 -212 -285 -354 -485 -321 -304 51
-475 411 -337 711 31 66 111 158 168 194 88 54 142 69 243 66 88 -3 103 -7
172 -41z"/>
<path d="M1746 6415 c-10 -26 -7 -294 3 -314 15 -26 197 -181 214 -181 17 0
57 46 57 66 0 7 -40 47 -90 90 l-89 77 -3 136 -3 136 -41 3 c-31 2 -43 -1 -48
-13z"/>
<path d="M6914 6937 c-3 -8 -4 -41 -2 -73 l3 -59 40 -5 c38 -5 40 -7 40 -39 0
-33 -1 -35 -64 -52 -419 -118 -578 -628 -308 -984 207 -272 574 -298 815 -56
131 131 187 280 180 481 -5 129 -24 195 -84 293 l-35 57 40 49 c23 27 41 54
41 61 0 12 -21 34 -64 69 -15 13 -22 9 -65 -33 l-48 -47 -63 40 c-35 23 -95
50 -134 62 -39 11 -77 22 -84 24 -8 3 -12 17 -10 37 3 31 6 33 48 38 l45 5 0
70 0 70 -143 3 c-114 2 -143 0 -148 -11z m311 -368 c72 -28 179 -125 217 -196
37 -67 68 -186 68 -258 0 -137 -52 -259 -154 -361 -79 -78 -156 -116 -256
-129 -211 -26 -432 145 -479 373 -55 266 75 504 324 591 52 18 212 7 280 -20z"/>
<path d="M7017 6423 c-4 -3 -7 -82 -7 -174 0 -179 0 -179 54 -179 42 0 46 16
46 176 0 84 -3 159 -6 168 -6 16 -73 23 -87 9z"/>
<path d="M12177 6943 c-9 -8 -9 -106 -1 -127 4 -11 19 -16 45 -16 39 0 39 0
39 -38 l0 -39 -55 -12 c-157 -35 -310 -160 -384 -312 -52 -109 -64 -162 -64
-289 1 -126 12 -180 60 -280 50 -105 168 -222 275 -275 203 -99 434 -57 604
110 123 122 184 269 184 444 0 121 -22 208 -75 308 l-45 86 45 48 c25 26 45
51 45 54 0 9 -72 85 -81 85 -4 0 -27 -20 -50 -45 -23 -25 -46 -45 -50 -45 -4
0 -34 18 -66 40 -37 25 -87 48 -140 62 l-83 23 0 37 c0 36 1 37 43 40 l42 3 6
55 c10 90 10 90 -150 90 -76 0 -141 -3 -144 -7z m308 -373 c73 -28 188 -137
229 -217 129 -257 29 -569 -223 -690 -71 -35 -82 -37 -171 -37 -88 1 -101 3
-171 36 -392 182 -363 775 46 921 70 25 208 19 290 -13z"/>
<path d="M12287 6423 c-4 -3 -7 -79 -7 -168 l0 -161 101 -87 c56 -48 108 -87
118 -87 21 1 53 45 49 68 -2 10 -40 51 -85 91 l-83 72 0 124 c0 68 -3 130 -6
139 -6 16 -73 23 -87 9z"/>
<path d="M735 4658 c-40 -14 -84 -56 -101 -95 -20 -47 -18 -51 31 -55 38 -3
46 0 51 17 12 39 46 65 84 65 72 0 110 -58 89 -133 -12 -45 -21 -51 -89 -57
l-55 -5 0 -38 0 -39 55 -4 c70 -6 100 -33 107 -97 5 -41 2 -49 -25 -77 -24
-24 -39 -30 -72 -30 -56 0 -75 12 -94 60 -13 33 -20 40 -43 40 -44 0 -56 -13
-48 -49 9 -41 60 -100 102 -117 48 -20 130 -17 177 6 69 33 107 114 92 195 -8
39 -60 105 -83 105 -10 0 0 15 25 39 135 131 -18 333 -203 269z"/>
<path d="M1215 4656 c-17 -7 -43 -27 -57 -44 -45 -54 -53 -94 -53 -262 0 -168
8 -208 53 -262 64 -76 191 -79 259 -6 43 45 53 98 53 272 0 157 -1 164 -27
217 -22 42 -38 59 -73 77 -50 25 -109 28 -155 8z m117 -77 c37 -20 48 -69 48
-222 0 -80 -3 -158 -6 -175 -9 -45 -39 -72 -79 -72 -83 0 -98 31 -103 215 -4
150 4 207 38 243 23 24 68 29 102 11z"/>
<path d="M1795 4658 c-3 -7 -4 -150 -3 -318 l3 -305 49 -3 49 -3 -6 237 c-3
130 -4 234 0 231 3 -4 43 -109 88 -234 l82 -228 34 0 33 0 81 227 c45 125 85
231 89 235 4 4 5 -99 1 -230 l-8 -238 49 3 49 3 0 315 0 315 -59 0 -59 0 -81
-230 c-45 -126 -85 -239 -89 -250 -6 -15 -21 18 -62 135 -29 85 -68 198 -87
250 l-33 95 -58 3 c-40 2 -59 -1 -62 -10z"/>
<path d="M2511 4656 c-21 -26 -10 -69 22 -80 23 -8 31 -6 49 12 18 18 20 26
12 49 -7 21 -17 29 -40 31 -18 2 -36 -3 -43 -12z"/>
<path d="M7145 4657 c-3 -7 -4 -149 -3 -317 l3 -305 47 -3 47 -3 3 143 3 143
130 0 130 0 3 -142 3 -143 49 0 50 0 -2 318 -3 317 -45 0 -45 0 -3 -132 -3
-133 -134 0 -135 0 0 135 0 135 -45 0 c-28 0 -48 -5 -50 -13z"/>
<path d="M11762 4649 c-50 -25 -84 -68 -86 -111 -1 -29 1 -31 37 -32 35 -1 40
2 52 31 16 38 41 53 89 53 61 0 95 -53 82 -125 -9 -46 -39 -65 -104 -65 l-53
0 3 -42 3 -41 45 -4 c90 -7 120 -35 120 -114 0 -56 -34 -89 -92 -89 -53 0 -85
21 -96 63 -7 29 -12 32 -51 35 l-44 3 6 -42 c3 -23 14 -54 24 -68 50 -68 180
-93 257 -48 58 33 79 67 84 136 5 70 -16 123 -59 148 -29 17 -38 33 -19 33 5
0 23 19 40 42 39 53 42 127 7 179 -48 73 -161 99 -245 58z"/>
<path d="M12260 4659 c-44 -18 -90 -71 -105 -123 -18 -60 -20 -270 -4 -348 24
-113 86 -164 191 -156 69 5 103 26 138 89 24 42 25 50 25 224 0 173 -1 182
-25 230 -19 38 -36 55 -70 73 -47 23 -107 28 -150 11z m125 -93 c31 -31 37
-80 33 -253 -3 -125 -5 -145 -24 -170 -15 -20 -31 -29 -58 -31 -84 -7 -106 44
-106 245 0 143 10 195 43 218 33 23 84 19 112 -9z"/>
<path d="M12840 4665 c0 -3 0 -146 0 -317 l-1 -313 45 -3 45 -3 3 142 3 143
130 -1 130 -1 3 -141 3 -142 45 3 45 3 0 315 0 315 -45 3 -46 4 0 -136 0 -136
-135 0 -135 0 0 135 0 135 -45 0 c-25 0 -45 -2 -45 -5z"/>
<path d="M6690 4641 c-25 -11 -72 -30 -105 -43 -59 -24 -60 -25 -63 -67 -4
-48 -8 -48 91 -11 26 10 48 15 49 12 1 -4 2 -117 2 -252 l1 -245 48 -3 47 -3
0 315 c0 246 -3 316 -12 316 -7 -1 -33 -9 -58 -19z"/>
<path d="M11185 4616 l-100 -42 -3 -43 c-3 -39 -1 -43 15 -36 10 4 42 15 71
25 l52 19 0 -255 0 -254 45 0 45 0 0 315 c0 246 -3 315 -12 314 -7 0 -58 -20
-113 -43z"/>
<path d="M2866 4500 c-16 -5 -39 -19 -52 -31 l-24 -22 0 26 c0 25 -3 27 -45
27 l-45 0 0 -235 0 -235 45 0 45 0 0 168 c0 189 4 204 69 223 46 14 77 1 91
-37 6 -14 10 -99 10 -190 l0 -164 46 0 46 0 -4 193 c-2 164 -6 197 -21 220
-34 53 -100 76 -161 57z"/>
<path d="M11487 4492 c-38 -42 -2 -102 50 -85 22 8 29 17 31 43 5 54 -47 80
-81 42z"/>
<path d="M2502 4268 l3 -233 43 -3 42 -3 0 235 0 236 -45 0 -45 0 2 -232z"/>
<path d="M11492 4124 c-41 -28 -19 -94 32 -94 31 0 46 19 46 57 0 27 -5 35
-26 43 -31 12 -25 13 -52 -6z"/>
</g>
</svg>
