<?xml version="1.0" standalone="no"?>
<!DOCTYPE svg PUBLIC "-//W3C//DTD SVG 20010904//EN"
 "http://www.w3.org/TR/2001/REC-SVG-20010904/DTD/svg10.dtd">
<svg version="1.0" xmlns="http://www.w3.org/2000/svg"
 width="512.000000pt" height="512.000000pt" viewBox="0 0 512.000000 512.000000"
 preserveAspectRatio="xMidYMid meet">

<g transform="translate(0.000000,512.000000) scale(0.100000,-0.100000)"
fill="#000000" stroke="none">
<path d="M560 4903 c-26 -33 -24 -46 26 -204 101 -319 252 -580 477 -823 103
-112 218 -213 496 -436 203 -163 371 -321 424 -396 l27 -40 -30 -88 c-86 -255
-113 -517 -125 -1191 -9 -533 -23 -642 -102 -819 -24 -54 -53 -137 -65 -185
-53 -222 18 -418 180 -498 54 -27 63 -28 197 -27 117 0 163 5 275 30 121 26
152 29 300 28 141 -1 183 -5 290 -28 178 -40 352 -46 448 -17 113 34 206 116
258 226 44 93 25 197 -49 262 -38 33 -45 36 -497 177 -120 38 -151 52 -177 78
-36 37 -53 76 -53 117 0 16 111 456 247 977 l247 949 1 130 c0 117 -3 136 -26
190 -26 60 -881 1522 -926 1583 l-24 32 -899 0 -899 0 -21 -27z m1791 -180
c54 -91 548 -928 721 -1220 66 -112 126 -224 134 -250 8 -27 15 -80 15 -119 0
-72 -3 -85 -437 -1784 -74 -289 -76 -314 -23 -420 31 -61 78 -108 136 -135 17
-8 153 -53 301 -99 148 -46 278 -88 289 -95 60 -32 40 -116 -47 -194 -96 -87
-208 -96 -473 -41 -95 20 -163 27 -307 31 -179 5 -190 4 -345 -27 -109 -22
-192 -33 -262 -34 -97 -1 -103 0 -145 29 -121 84 -128 269 -19 511 79 177 88
240 101 729 13 524 27 799 45 925 21 138 56 285 94 390 17 46 31 94 31 106 0
32 -122 185 -236 294 -55 52 -203 180 -331 283 -127 103 -275 229 -327 279
-187 176 -320 356 -426 573 -51 106 -130 309 -130 336 0 5 305 9 798 9 l798 0
45 -77z"/>
<path d="M1962 4587 c-12 -13 -22 -34 -22 -47 0 -22 633 -1002 668 -1033 9 -8
53 -30 97 -47 44 -17 88 -39 98 -47 26 -24 22 -69 -8 -89 -23 -15 -30 -15 -96
0 -39 9 -80 16 -90 16 -11 0 -49 -27 -84 -60 -74 -69 -112 -79 -141 -35 -15
24 -15 30 17 120 25 74 30 102 23 120 -12 34 -582 773 -605 785 -29 16 -54 12
-77 -13 -38 -41 -29 -64 85 -212 58 -77 172 -225 251 -330 80 -104 158 -206
174 -226 l28 -35 -25 -67 c-14 -37 -25 -85 -25 -108 0 -111 88 -199 199 -199
69 0 98 13 157 71 l50 50 59 -16 c88 -22 152 -7 207 52 59 62 74 154 37 230
-26 53 -59 77 -162 117 l-81 32 -313 480 c-173 263 -323 487 -334 497 -29 24
-61 21 -87 -6z"/>
<path d="M996 4448 c-9 -12 -16 -32 -16 -43 0 -21 113 -204 134 -217 41 -27
106 10 106 60 -1 23 -51 111 -115 200 -22 31 -87 31 -109 0z"/>
<path d="M2728 3056 c-20 -7 -55 -28 -78 -46 l-41 -32 -55 21 c-114 43 -213
16 -269 -74 -24 -39 -30 -59 -29 -104 0 -68 19 -106 86 -177 l50 -53 -26 -163
c-117 -727 -177 -1114 -174 -1136 7 -59 90 -79 122 -29 17 27 230 1342 222
1371 -3 12 -35 53 -71 91 -69 75 -80 108 -47 138 26 24 47 21 130 -14 85 -35
94 -34 171 27 62 48 91 54 121 24 34 -34 24 -58 -57 -147 l-77 -85 -88 -557
c-48 -306 -88 -570 -88 -587 0 -39 30 -67 72 -67 49 0 61 25 86 179 12 76 51
321 87 544 36 223 65 410 65 417 0 6 27 44 61 84 80 96 93 123 93 189 -1 61
-18 102 -61 142 -57 54 -131 70 -205 44z"/>
<path d="M4273 4129 c-16 -6 -212 -238 -260 -308 -1 -2 -37 11 -79 29 -70 31
-78 33 -102 19 -38 -21 -252 -306 -252 -335 0 -38 35 -66 78 -62 34 3 43 11
129 125 l93 122 65 -30 c35 -16 76 -29 90 -29 30 0 35 6 199 215 99 126 126
167 126 191 0 46 -45 79 -87 63z"/>
<path d="M4134 3449 l-83 -82 -66 42 c-95 59 -105 57 -202 -45 -70 -71 -83
-91 -83 -118 0 -40 26 -66 65 -66 22 0 43 14 85 55 l55 55 65 -40 c36 -22 76
-40 91 -40 19 0 52 28 137 113 68 70 112 122 112 134 0 11 -9 32 -21 47 -35
45 -62 35 -155 -55z"/>
<path d="M3820 3061 c-168 -42 -186 -48 -200 -73 -11 -20 -12 -34 -4 -55 17
-48 47 -50 201 -15 76 18 143 32 150 32 6 0 19 -21 29 -47 27 -70 59 -103 100
-103 18 0 111 18 206 40 260 61 247 56 265 96 16 33 16 35 -4 62 -12 16 -31
28 -49 30 -16 1 -107 -15 -202 -38 -95 -22 -174 -40 -177 -40 -2 0 -16 27 -31
59 -28 63 -47 85 -79 94 -11 3 -103 -16 -205 -42z"/>
</g>
</svg>
