<?xml version="1.0" standalone="no"?>
<!DOCTYPE svg PUBLIC "-//W3C//DTD SVG 20010904//EN"
 "http://www.w3.org/TR/2001/REC-SVG-20010904/DTD/svg10.dtd">
<svg version="1.0" xmlns="http://www.w3.org/2000/svg"
 width="1024.000000pt" height="1024.000000pt" viewBox="0 0 1024.000000 1024.000000"
 preserveAspectRatio="xMidYMid meet">

<g transform="translate(0.000000,1024.000000) scale(0.100000,-0.100000)"
fill="#000000" stroke="none">
<path d="M7683 9210 c-18 -10 -38 -29 -46 -42 -8 -13 -63 -138 -121 -278
l-107 -255 -272 -18 c-299 -20 -324 -25 -364 -86 -27 -40 -29 -89 -7 -136 9
-19 84 -94 172 -173 86 -77 182 -162 211 -189 l55 -49 -63 -278 -64 -278 19
-46 c25 -59 71 -92 129 -92 36 0 70 17 231 113 104 62 215 128 247 146 l58 33
217 -130 c119 -71 231 -137 249 -146 69 -35 155 -9 189 55 23 46 16 104 -49
379 -44 185 -53 237 -44 249 7 8 103 97 215 199 112 101 208 195 213 209 5 13
9 45 9 70 0 39 -5 50 -38 83 -24 24 -51 41 -72 44 -19 3 -150 14 -290 24
l-254 17 -112 268 c-62 147 -118 274 -125 283 -38 46 -131 58 -186 24z m94
-242 c6 -18 51 -130 100 -248 65 -156 97 -219 116 -233 22 -17 62 -23 278 -38
138 -10 254 -20 255 -22 2 -2 -86 -86 -196 -186 -110 -100 -202 -192 -205
-204 -4 -12 21 -136 54 -274 34 -138 61 -255 61 -258 0 -4 -12 1 -27 11 -16
10 -115 71 -221 137 -149 92 -201 119 -228 119 -34 0 -57 -12 -369 -199 -66
-39 -121 -71 -121 -70 -1 1 20 90 46 197 63 253 74 311 67 341 -4 16 -82 93
-207 205 l-200 179 43 6 c23 3 134 12 247 19 119 7 219 18 238 26 37 15 40 21
168 331 43 106 82 193 85 193 3 0 10 -15 16 -32z"/>
<path d="M2415 9064 c-90 -19 -233 -89 -310 -151 -103 -83 -198 -227 -240
-363 -25 -81 -31 -267 -11 -360 20 -98 90 -236 166 -330 117 -144 130 -183
139 -431 7 -195 7 -197 37 -245 34 -57 99 -109 152 -124 20 -5 123 -10 228
-10 219 0 256 8 327 70 76 67 89 113 97 335 4 105 12 205 19 224 13 42 47 95
117 181 70 87 128 197 155 295 27 95 31 267 10 355 -56 228 -227 429 -440 515
-130 53 -306 68 -446 39z m305 -179 c99 -26 180 -74 255 -149 82 -83 118 -145
145 -252 48 -188 5 -359 -135 -529 -90 -109 -133 -198 -153 -319 l-16 -96 -78
0 -78 0 0 225 0 225 58 0 c60 0 89 17 105 62 9 24 -11 76 -33 88 -11 6 -106
10 -216 10 -189 0 -199 -1 -221 -22 -16 -15 -23 -33 -23 -59 0 -53 35 -79 106
-79 l54 0 0 -225 0 -226 -77 3 -78 3 -7 60 c-18 139 -54 219 -158 350 -82 102
-112 156 -134 242 -20 76 -20 221 -1 293 53 200 210 351 414 399 58 14 212 12
271 -4z m100 -1539 c0 -36 -15 -71 -41 -95 -21 -20 -34 -21 -205 -21 l-182 0
-26 31 c-18 21 -26 42 -26 70 l0 39 240 0 240 0 0 -24z"/>
<path d="M7577 6925 c-423 -80 -727 -391 -787 -804 -17 -112 -7 -542 13 -631
45 -190 125 -378 220 -517 l55 -82 -7 -153 c-9 -164 -14 -187 -56 -237 -41
-47 -74 -61 -394 -161 -325 -101 -387 -123 -481 -170 -111 -55 -193 -116 -277
-203 -125 -131 -201 -275 -246 -472 -21 -88 -21 -118 -24 -1187 -4 -1080 -3
-1098 16 -1136 40 -78 -146 -72 2154 -72 1969 0 2054 1 2086 18 19 10 43 34
53 53 18 33 18 80 15 1139 -3 1019 -4 1111 -21 1180 -78 327 -259 559 -541
691 -96 45 -200 80 -540 184 -272 82 -300 97 -345 176 -23 41 -25 56 -28 201
l-4 157 56 84 c93 140 167 322 211 517 22 99 32 480 16 604 -53 395 -324 703
-708 802 -125 33 -319 41 -436 19z m318 -170 c289 -51 523 -242 616 -504 42
-120 52 -213 47 -458 -6 -242 -21 -324 -91 -497 -156 -381 -493 -635 -784
-587 -236 38 -469 233 -606 507 -41 81 -96 250 -112 342 -21 120 -21 476 1
580 65 316 316 557 642 616 103 19 182 19 287 1z m-454 -2150 c249 -117 502
-94 744 69 l80 54 7 -80 c15 -170 87 -289 213 -350 52 -26 52 -23 29 -177 -36
-249 -80 -375 -166 -486 -202 -260 -643 -340 -967 -175 -176 89 -283 224 -341
432 -21 75 -70 327 -70 359 0 12 18 28 51 45 63 31 139 106 169 164 26 50 50
157 50 222 l0 47 64 -44 c35 -25 97 -61 137 -80z m1387 -425 l42 -11 0 -449
c0 -577 13 -682 109 -880 l36 -75 -3 -747 -3 -748 -1259 0 -1260 0 -2 738 -3
737 27 50 c36 68 74 183 94 291 15 73 19 175 23 583 l6 494 75 24 c41 12 80
23 85 23 6 0 18 -53 29 -117 24 -152 67 -322 100 -396 116 -261 370 -442 685
-488 109 -15 291 -6 401 21 46 11 125 40 176 64 238 113 379 286 450 551 20
75 64 322 64 362 0 9 11 8 43 -2 23 -8 61 -19 85 -25z m-2371 -547 c-4 -486
-10 -563 -48 -655 l-11 -28 -25 20 c-35 27 -65 25 -102 -6 -43 -36 -41 -76 7
-167 l37 -72 3 -727 2 -728 -280 0 -281 0 4 1068 3 1067 22 85 c61 230 200
408 402 514 64 34 239 104 263 106 5 0 7 -215 4 -477z m2711 441 c231 -85 371
-197 470 -374 42 -75 88 -218 101 -313 7 -52 11 -429 11 -1098 l0 -1019 -285
0 -285 0 0 718 c0 776 0 768 54 848 34 51 34 88 -3 125 -33 32 -74 38 -108 14
-20 -14 -21 -12 -37 38 -36 115 -46 257 -46 685 0 365 2 412 15 412 9 0 60
-16 113 -36z"/>
<path d="M2396 6714 c-249 -49 -441 -180 -572 -390 -100 -161 -151 -344 -161
-585 -16 -386 93 -700 321 -922 l70 -67 -12 -81 c-13 -93 -41 -149 -91 -183
-21 -14 -154 -59 -324 -110 -338 -101 -413 -129 -525 -193 -182 -106 -312
-245 -407 -438 -85 -172 -99 -237 -155 -700 -28 -225 -50 -426 -50 -447 0 -49
41 -83 110 -93 l50 -7 0 -626 c0 -594 1 -629 19 -669 12 -26 35 -52 62 -70
l43 -28 1800 0 c1751 0 1802 1 1839 19 22 11 51 37 65 59 l27 41 3 636 2 637
45 7 c62 8 101 30 112 63 14 39 -86 820 -122 958 -30 114 -92 252 -156 346
-96 144 -266 288 -420 358 -63 28 -240 85 -554 176 -88 26 -179 57 -202 71
-56 32 -93 107 -102 206 l-6 73 72 71 c148 146 255 364 300 609 20 109 22 364
4 480 -60 374 -268 648 -578 758 -154 55 -355 72 -507 41z m379 -179 c350 -94
555 -411 555 -861 0 -273 -92 -531 -249 -696 -138 -145 -289 -217 -474 -226
-213 -9 -389 65 -545 233 -155 165 -232 395 -232 690 0 285 74 505 225 664
111 118 217 177 370 207 88 17 268 12 350 -11z m-445 -1918 c157 -56 380 -48
543 18 34 13 62 23 63 22 0 -1 9 -34 18 -73 26 -107 82 -195 161 -251 l29 -21
-29 -42 c-45 -64 -111 -117 -210 -165 -121 -59 -225 -80 -365 -72 -191 11
-330 66 -440 177 -93 93 -94 99 -24 163 64 58 107 137 125 230 10 48 15 57 28
51 9 -4 54 -21 101 -37z m-446 -416 c51 -83 169 -190 264 -239 206 -108 481
-136 697 -71 187 56 388 205 444 330 l16 35 261 -76 c297 -87 351 -107 437
-162 188 -122 325 -323 382 -559 19 -83 92 -596 107 -758 l3 -35 -255 -52
c-140 -29 -269 -55 -287 -59 l-32 -6 -3 197 -3 196 -28 24 c-37 31 -81 31
-112 -1 l-25 -24 0 -836 0 -835 -1175 0 -1175 0 0 835 0 836 -25 24 c-31 32
-75 32 -112 1 l-28 -24 -2 -194 c-1 -154 -4 -193 -15 -191 -19 3 -509 102
-535 108 -18 4 -21 10 -17 38 2 17 22 177 44 354 42 344 61 435 114 562 89
210 261 383 469 470 68 28 514 168 543 170 6 1 28 -26 48 -58z m-854 -1781
c113 -22 206 -40 208 -40 1 0 2 -250 2 -555 l0 -555 -215 0 -215 0 0 595 c0
327 3 595 8 595 4 0 99 -18 212 -40z m3310 -555 l0 -595 -210 0 -210 0 0 554
0 554 203 40 c111 22 205 40 210 41 4 0 7 -267 7 -594z"/>
</g>
</svg>
