<?xml version="1.0" standalone="no"?>
<!DOCTYPE svg PUBLIC "-//W3C//DTD SVG 20010904//EN"
 "http://www.w3.org/TR/2001/REC-SVG-20010904/DTD/svg10.dtd">
<svg version="1.0" xmlns="http://www.w3.org/2000/svg"
 width="1536.000000pt" height="1024.000000pt" viewBox="0 0 1536.000000 1024.000000"
 preserveAspectRatio="xMidYMid meet">

<g transform="translate(0.000000,1024.000000) scale(0.100000,-0.100000)"
fill="#000000" stroke="none">
<path d="M4860 9685 c-148 -27 -316 -135 -419 -271 -116 -153 -181 -339 -201
-571 -13 -156 -31 -279 -76 -528 -19 -104 -37 -219 -40 -255 -15 -153 69 -306
186 -341 22 -7 40 -16 40 -20 0 -4 -37 -20 -82 -35 -287 -94 -409 -234 -492
-566 -44 -177 -110 -522 -104 -540 7 -17 86 -36 328 -78 l185 -32 28 -169 c41
-245 54 -402 39 -497 -6 -42 -47 -198 -90 -347 -44 -148 -76 -274 -72 -280 4
-5 -5 -64 -21 -129 -75 -316 -76 -484 -9 -1161 56 -558 70 -797 70 -1189 1
-209 5 -498 10 -641 5 -143 13 -421 16 -618 l7 -359 26 -16 c14 -9 28 -17 30
-19 9 -7 -97 -108 -231 -219 -75 -63 -146 -130 -158 -149 -11 -18 -23 -56 -27
-82 -5 -46 -3 -51 26 -76 49 -40 100 -50 241 -44 141 5 225 27 326 83 34 19
101 48 149 65 108 37 142 54 154 77 18 34 23 137 11 241 -12 106 -10 112 24
124 5 2 15 81 22 177 30 395 56 706 74 895 11 110 26 292 35 405 8 113 40 531
70 930 69 913 61 837 92 845 14 3 30 2 35 -3 9 -9 25 -189 48 -532 6 -91 24
-338 40 -550 16 -212 36 -486 45 -610 8 -124 24 -333 35 -465 31 -379 49 -622
62 -868 l12 -228 24 -6 c20 -5 23 -10 18 -32 -4 -14 -9 -87 -12 -161 -4 -102
-2 -141 8 -160 11 -19 39 -34 130 -66 64 -23 145 -58 180 -77 115 -64 193 -82
358 -82 158 0 193 9 226 60 21 32 12 100 -19 146 -12 19 -85 86 -162 151 -77
65 -160 139 -184 164 -48 50 -48 48 6 80 17 10 18 38 24 434 4 233 9 464 13
514 3 50 8 305 11 566 6 500 10 556 85 1340 63 662 61 819 -15 1131 -13 53
-21 105 -19 116 3 10 -29 139 -71 286 -95 334 -103 385 -87 559 13 146 54 418
66 436 4 7 17 12 28 12 48 0 420 71 452 87 22 10 36 24 36 35 0 10 -25 143
-56 295 -81 406 -129 536 -243 649 -64 64 -142 110 -238 141 -142 45 -147 49
-83 78 22 10 59 38 81 62 91 99 103 196 51 428 -33 147 -64 366 -82 575 -22
250 -50 372 -120 515 -96 198 -241 321 -423 359 -103 21 -335 27 -427 11z
m317 -437 c22 -46 61 -111 87 -145 46 -63 169 -169 235 -202 20 -11 44 -28 54
-39 14 -15 27 -18 60 -15 39 5 46 2 74 -30 41 -46 58 -124 43 -191 -21 -97
-69 -159 -149 -194 -37 -17 -46 -27 -67 -78 -32 -79 -87 -156 -153 -215 -54
-48 -55 -50 -59 -112 -5 -77 13 -200 33 -231 17 -26 47 -42 100 -52 20 -3 39
-13 43 -22 8 -23 -43 -113 -94 -164 -87 -87 -197 -128 -344 -128 -139 0 -251
40 -345 123 -52 46 -121 149 -111 165 3 5 32 15 65 22 36 8 68 21 81 35 26 28
38 102 34 220 l-2 90 -70 71 c-49 50 -81 95 -111 154 -22 45 -41 88 -41 96 0
7 -19 22 -42 32 -88 39 -129 103 -136 210 -9 147 72 245 156 187 20 -15 27
-13 99 17 112 46 298 174 372 255 38 41 76 96 99 144 20 43 39 78 42 78 3 1
24 -36 47 -81z"/>
<path d="M11249 8895 c-164 -30 -457 -134 -599 -212 -92 -51 -192 -157 -268
-285 -261 -440 -613 -1474 -648 -1904 -16 -194 65 -282 392 -425 470 -206
1104 -349 1557 -350 l178 -1 27 -35 c169 -222 282 -322 470 -415 73 -37 126
-58 131 -52 18 19 121 293 155 414 143 508 122 1019 -59 1406 -38 82 -49 97
-79 109 -67 28 -151 46 -248 52 -172 11 -317 -26 -483 -123 l-79 -47 -126 41
c-173 56 -227 66 -365 66 -148 -1 -235 -22 -385 -97 -58 -28 -109 -54 -114
-56 -5 -2 -6 7 -3 20 4 13 12 150 17 304 10 269 23 448 55 750 8 77 15 145 15
150 0 6 84 10 233 10 l232 0 79 -37 c55 -27 92 -38 125 -38 43 0 49 3 116 73
47 47 83 96 105 140 46 94 40 139 -44 312 -72 150 -122 204 -209 230 -60 18
-78 18 -178 0z m749 -2131 c41 -11 52 -51 52 -193 l0 -130 104 6 c57 3 115 3
130 -1 61 -15 77 -162 22 -198 -6 -4 -52 -8 -102 -8 -50 0 -106 -3 -123 -6
l-31 -6 0 -130 c0 -124 -1 -130 -25 -153 -43 -44 -150 -30 -174 22 -6 13 -11
79 -11 149 l0 125 -126 -3 c-122 -3 -127 -2 -145 21 -14 17 -19 39 -19 86 0
93 11 99 166 103 l124 4 0 134 c0 130 1 136 25 159 25 26 79 33 133 19z"/>
<path d="M11330 4506 c-279 -60 -510 -252 -586 -489 -19 -60 -27 -112 -31
-192 -7 -133 5 -212 58 -405 51 -188 58 -273 30 -408 -23 -111 -74 -259 -121
-356 -17 -34 -66 -113 -110 -176 -145 -209 -207 -304 -243 -372 l-36 -66 47
-47 c109 -107 358 -248 557 -313 324 -107 701 -119 1023 -32 45 12 82 27 82
32 0 25 -117 231 -175 309 -77 103 -218 240 -326 315 -57 41 -79 62 -79 77 0
34 27 208 34 214 2 3 45 0 93 -7 48 -7 136 -14 195 -14 98 -1 108 1 131 22 25
24 90 167 130 286 l22 70 66 -3 c88 -3 117 5 135 41 17 33 15 53 -23 173 -29
93 -33 205 -12 300 17 77 17 298 0 395 -32 181 -123 363 -237 476 -67 65 -187
133 -284 160 -79 21 -261 27 -340 10z"/>
<path d="M7327 4466 c-46 -17 -64 -32 -83 -67 -20 -39 -18 -88 6 -126 39 -65
18 -63 672 -63 545 0 596 1 627 18 50 25 73 61 73 115 0 53 -22 91 -66 115
-28 15 -87 17 -611 19 -473 2 -587 0 -618 -11z"/>
</g>
</svg>
